<?xml version="1.0" encoding="utf-8"?>
<!-- Generator: Adobe Illustrator 27.8.1, SVG Export Plug-In . SVG Version: 6.00 Build 0)  -->
<?xml version="1.0" encoding="utf-8"?>
<svg viewBox="310.9487 173.2524 31.9029 32" width="31.9029" height="32" xmlns="http://www.w3.org/2000/svg">
  <g transform="matrix(1, 0, 0, 1, 301.0044860839844, 146.7252197265625)">
    <g transform="matrix(1, 0, 0, 1, 9.944201, 26.527164)">
      <path fill="#297AD3" d="M26.5,32H5.5C2.5,32,0,29.5,0,26.5V5.5C0,2.5,2.5,0,5.5,0h20.9c3,0,5.5,2.5,5.5,5.5v20.9 C32,29.5,29.5,32,26.5,32z"/>
      <g>
        <path fill="#FFFFFF" d="M10.2,12.2c0.9-0.6,1.7-1.1,2.7-1.6c0.8-0.3,1.6,0.2,2.1,0.9c0.1,0.1,0.4,0.4,0.5,0.6 c0.4,0.4,0.9,0.4,1.3,0l1.6-1.2c0.7-0.6,1.7-0.4,2.4,0.2c1.1,0.8,2.2,1.6,3.2,2.4c-1.4-0.6-2.8-1.3-4.1-1.9 c-0.3-0.1-0.7-0.1-1,0.1c-0.4,0.3-1.6,1.4-2.1,1.6c-0.8,0.4-1.8,0.1-2.3-0.7l-0.3-0.4c-0.3-0.4-0.7-0.9-1.3-0.8 C12.1,11.5,11.1,11.9,10.2,12.2L10.2,12.2z"/>
        <path fill="#FFFFFF" d="M20,21.1c0.8-0.7,1.9-1.7,2.9-0.8c0.4,0.3,0.9,0.4,1.3,0.1c0.3-0.2,0.5-0.6,1-0.8c1.3-0.6,2.5,0.7,3.6,1.2 c-1-0.1-2.4-1.1-3.3-0.7c-0.3,0.1-0.5,0.5-0.9,0.8c-0.4,0.3-1,0.4-1.5,0.2c-0.4-0.1-0.6-0.5-1-0.6C21.4,20.2,20.7,20.9,20,21.1 L20,21.1z"/>
        <path fill="#FFFFFF" d="M3.7,17.5c1-0.4,2-1.2,3.1-0.6c0.6,0.3,0.7,1,1,1.1c0.3,0.2,0.7,0.3,1,0.1c0.5-0.2,0.9-0.5,1.4-0.7 c0.6-0.2,1.4,0,1.7,0.5c0.8,0.7,1.5,1.4,2.1,2.2c-0.9-0.5-1.7-1.1-2.5-1.7c-0.6-0.5-1.1-0.3-1.7,0.1c-0.7,0.5-1.8,0.9-2.5,0.2 c-0.5-0.5-0.6-1-0.9-1.2C5.7,16.8,4.6,17.5,3.7,17.5L3.7,17.5z"/>
      </g>
    </g>
  </g>
</svg>
