<svg viewBox="5.784 4.8 471.375 486.4" width="32" height="32">
  <rect class="st0" width="471.375" height="486.4" style="fill: rgb(171, 254, 44);" x="5.784" y="4.8" rx="127.916" ry="127.916"></rect>
  <g transform="matrix(1, 0, 0, 1, 47.854267, 5.369365)">
    <path class="st1" d="M43.92,442.48v-92.67h11.12v82.61h48.39v10.06H43.92z" style="fill: rgb(0, 80, 30);"></path>
    <path class="st1" d="M114.72,442.48v-92.67h57.06v10.06h-45.94v30.98h37.23v10.06h-37.23v31.51h46.6v10.06H114.72z" style="fill: rgb(0, 80, 30);"></path>
    <path class="st1" d="M183.73,442.48v-92.67h23.58l32.3,85.65h3.72v-85.65h10.99v92.67h-23.58l-32.17-85.79h-3.85v85.79H183.73z" style="fill: rgb(0, 80, 30);"></path>
    <path class="st1" d="M300.92,444.33c-6.71,0-12.71-1.19-18-3.57c-5.3-2.38-9.47-5.98-12.51-10.79c-3.04-4.81-4.57-10.83-4.57-18.07
		v-2.78h10.99v2.78c0,7.68,2.25,13.39,6.75,17.14c4.5,3.75,10.28,5.63,17.34,5.63c7.24,0,12.75-1.63,16.55-4.9
		c3.79-3.26,5.69-7.37,5.69-12.31c0-3.44-0.86-6.18-2.58-8.21c-1.72-2.03-4.13-3.68-7.22-4.96c-3.09-1.28-6.71-2.4-10.86-3.38
		l-6.88-1.72c-5.38-1.41-10.15-3.13-14.3-5.16c-4.15-2.03-7.39-4.7-9.73-8.01c-2.34-3.31-3.51-7.57-3.51-12.77
		c0-5.21,1.3-9.71,3.91-13.5c2.6-3.79,6.27-6.71,10.99-8.74c4.72-2.03,10.17-3.05,16.35-3.05c6.27,0,11.89,1.08,16.88,3.24
		c4.99,2.16,8.91,5.34,11.78,9.53c2.87,4.19,4.3,9.47,4.3,15.82v5.56h-10.99v-5.56c0-4.5-0.95-8.12-2.85-10.86
		c-1.9-2.73-4.5-4.77-7.81-6.09c-3.31-1.32-7.08-1.99-11.32-1.99c-6.09,0-10.99,1.35-14.69,4.04c-3.71,2.69-5.56,6.51-5.56,11.45
		c0,3.27,0.79,5.91,2.38,7.94c1.59,2.03,3.84,3.69,6.75,4.96c2.91,1.28,6.4,2.41,10.46,3.38l6.88,1.72
		c5.38,1.15,10.21,2.71,14.5,4.7c4.28,1.99,7.7,4.68,10.26,8.08c2.56,3.4,3.84,7.83,3.84,13.3c0,5.47-1.37,10.24-4.1,14.3
		c-2.74,4.06-6.6,7.22-11.58,9.47C313.48,443.21,307.63,444.33,300.92,444.33z" style="fill: rgb(0, 80, 30);"></path>
  </g>
  <path class="st1" d="M 237.084 234.829 C 234.144 234.829 164.364 234.219 111.004 180.849 C 109.874 179.719 108.774 178.589 107.694 177.439 C 96.524 165.639 91.214 151.619 92.344 136.889 C 93.334 123.899 99.314 111.299 109.194 101.419 C 119.074 91.539 131.664 85.559 144.664 84.569 C 158.274 83.529 171.284 87.989 182.494 97.489 C 183.704 82.849 189.754 70.499 200.104 61.609 C 209.994 53.119 223.134 48.449 237.094 48.449 C 251.054 48.449 264.204 53.119 274.084 61.609 C 284.444 70.499 290.484 82.849 291.704 97.489 C 302.914 87.989 315.924 83.529 329.534 84.569 C 342.524 85.559 355.124 91.539 364.994 101.419 C 374.874 111.299 380.854 123.889 381.844 136.889 C 382.964 151.619 377.654 165.639 366.494 177.439 C 365.414 178.579 364.304 179.719 363.184 180.849 C 309.804 234.219 240.034 234.829 237.084 234.829 Z M 148.504 95.519 C 136.404 95.519 125.044 101.139 116.964 109.219 C 102.434 123.749 95.844 148.929 115.684 169.899 C 116.694 170.969 117.724 172.029 118.784 173.089 C 168.964 223.269 236.414 223.849 237.094 223.849 C 237.764 223.849 305.344 223.139 355.404 173.089 C 356.464 172.029 357.494 170.969 358.504 169.899 C 378.344 148.939 371.744 123.749 357.214 109.229 C 342.684 94.699 317.504 88.109 296.544 107.939 C 295.474 108.949 294.414 109.979 293.354 111.039 C 292.534 111.859 291.754 112.689 290.974 113.519 L 280.494 124.569 L 280.904 109.389 C 280.934 108.239 280.974 107.079 280.974 105.909 C 280.974 104.419 280.954 102.939 280.914 101.459 C 280.114 72.609 257.644 59.459 237.104 59.459 C 216.564 59.459 194.084 72.599 193.294 101.459 C 193.254 102.929 193.234 104.409 193.234 105.909 C 193.234 107.049 193.264 108.179 193.294 109.299 L 193.694 124.569 L 183.254 113.549 C 182.464 112.709 181.664 111.869 180.844 111.039 C 179.784 109.979 178.724 108.949 177.654 107.939 C 168.324 99.109 158.174 95.519 148.504 95.519 Z" style="fill: rgb(0, 80, 30);"></path>
  <path class="st1" d="M 380.004 315.809 C 360.334 324.849 337.864 327.209 316.604 322.429 C 295.984 317.789 277.904 307.049 264.014 291.279 C 265.374 292.219 266.774 293.129 268.214 293.999 C 280.094 301.159 293.294 304.759 306.494 304.759 C 318.224 304.759 329.964 301.919 340.784 296.199 C 341.554 295.799 342.314 295.379 343.074 294.949 L 337.634 285.389 C 336.974 285.769 336.314 286.129 335.644 286.479 C 316.094 296.809 293.014 296.109 273.894 284.589 C 254.324 272.799 242.634 252.169 242.634 229.409 L 242.634 225.169 L 242.534 225.169 L 231.634 225.169 L 231.534 225.169 L 231.534 229.409 C 231.534 252.169 219.844 272.799 200.274 284.589 C 181.154 296.109 158.074 296.819 138.524 286.479 C 137.854 286.129 137.194 285.769 136.534 285.389 L 131.094 294.949 C 131.854 295.379 132.614 295.799 133.384 296.199 C 144.204 301.919 155.934 304.759 167.674 304.759 C 180.874 304.759 194.064 301.159 205.954 293.999 C 207.394 293.139 208.794 292.229 210.154 291.279 C 196.264 307.049 178.184 317.789 157.564 322.429 C 136.304 327.219 113.834 324.859 94.164 315.809 L 88.634 325.389 C 103.334 332.309 119.474 335.849 135.684 335.849 C 143.824 335.849 151.974 334.959 159.974 333.159 C 184.634 327.609 206.044 314.209 221.864 294.429 C 225.564 289.809 228.784 284.849 231.524 279.659 L 231.524 335.849 L 242.524 335.849 L 242.524 279.469 C 245.294 284.729 248.544 289.759 252.284 294.429 C 268.114 314.209 289.514 327.599 314.174 333.159 C 322.174 334.959 330.324 335.849 338.464 335.849 C 354.674 335.849 370.814 332.309 385.514 325.389 L 380.004 315.809 Z" style="fill: rgb(0, 80, 30);"></path>
  <path class="st1" d="M 229.934 176.569 L 221.934 176.569 C 221.934 164.659 210.344 154.959 196.094 154.959 C 181.844 154.959 170.254 164.649 170.254 176.569 L 162.254 176.569 C 162.254 160.249 177.434 146.959 196.094 146.959 C 214.754 146.959 229.934 160.239 229.934 176.569 Z" style="fill: rgb(0, 80, 30);"></path>
  <circle class="st1" cx="205.294" cy="165.229" r="11.51" style="fill: rgb(0, 80, 30);"></circle>
  <path class="st1" d="M 311.994 176.569 L 303.994 176.569 C 303.994 164.659 292.404 154.959 278.154 154.959 C 263.904 154.959 252.314 164.649 252.314 176.569 L 244.314 176.569 C 244.314 160.249 259.494 146.959 278.154 146.959 C 296.814 146.959 311.994 160.239 311.994 176.569 Z" style="fill: rgb(0, 80, 30);"></path>
  <circle class="st1" cx="287.364" cy="165.229" r="11.51" style="fill: rgb(0, 80, 30);"></circle>
  <path class="st1" d="M 236.954 205.979 C 227.524 205.979 218.784 201.129 214.704 193.639 L 221.734 189.809 C 224.444 194.769 230.414 197.979 236.964 197.979 C 243.514 197.979 249.484 194.769 252.194 189.809 L 259.214 193.639 C 255.124 201.129 246.384 205.979 236.954 205.979 Z" style="fill: rgb(0, 80, 30);"></path>
</svg>